<?xml version="1.0" encoding="iso-8859-1"?>
<!-- Generator: Adobe Illustrator 19.0.0, SVG Export Plug-In . SVG Version: 6.00 Build 0)  -->
<svg version="1.1" id="Capa_1" xmlns="http://www.w3.org/2000/svg" xmlns:xlink="http://www.w3.org/1999/xlink" x="0px" y="0px"
	 viewBox="0 0 432 432" style="enable-background:new 0 0 432 432;" xml:space="preserve">
<g>
	<g>
		<path d="M358.4,68h-63.2V49.6c0-4.8-3.2-8-8-8H264C260,17.6,240,0,216,0s-44,17.6-48,40.8h-23.2c-4.8,0-8,3.2-8,8v18.4H73.6
			c-9.6,0-16.8,7.2-16.8,16.8v330.4c0,9.6,7.2,17.6,16.8,17.6h284.8c9.6,0,16.8-7.2,16.8-16.8V84.8C375.2,75.2,368,68,358.4,68z
			 M216,16c15.2,0,28,10.4,32,24.8h-64C188,27.2,200.8,16,216,16z M152.8,56.8H280v36.8H152.8V56.8z M360,415.2c0,0.8,0,0.8-0.8,0.8
			H73.6c-0.8,0-0.8,0-0.8-0.8V84.8c0-0.8,0-0.8,0.8-0.8h63.2v18.4c0,4.8,3.2,8,8,8H288c4.8,0,8-3.2,8-8V84h63.2c0.8,0,0.8,0,0.8,0.8
			V415.2z"/>
	</g>
</g>
<g>
	<g>
		<path d="M158.4,154.4H100c-4.8,0-8,3.2-8,8v58.4c0,4.8,4,8,8,8h58.4c4.8,0,8-3.2,8-8v-58.4C166.4,157.6,163.2,154.4,158.4,154.4z
			 M150.4,212.8H108v-42.4h42.4V212.8z"/>
	</g>
</g>
<g>
	<g>
		<path d="M158.4,270.4H100c-4.8,0-8,3.2-8,8v58.4c0,4.8,4,8,8,8h58.4c4.8,0,8-3.2,8-8v-58.4C166.4,273.6,163.2,270.4,158.4,270.4z
			 M150.4,328.8H108v-42.4h42.4V328.8z"/>
	</g>
</g>
<g>
	<g>
		<path d="M288,164.8h-98.4c-4.8,0-8,3.2-8,8s3.2,8,8,8H288c4.8,0,8-3.2,8-8S292.8,164.8,288,164.8z"/>
	</g>
</g>
<g>
	<g>
		<path d="M304.8,203.2H189.6c-4.8,0-8,3.2-8,8s3.2,8,8,8h115.2c4.8,0,8-3.2,8-8S309.6,203.2,304.8,203.2z"/>
	</g>
</g>
<g>
	<g>
		<path d="M288,280.8h-98.4c-4.8,0-8,3.2-8,8s3.2,8,8,8H288c4.8,0,8-3.2,8-8S292.8,280.8,288,280.8z"/>
	</g>
</g>
<g>
	<g>
		<path d="M304.8,319.2H189.6c-4.8,0-8,3.2-8,8s3.2,8,8,8h115.2c4.8,0,8-3.2,8-8S309.6,319.2,304.8,319.2z"/>
	</g>
</g>
<g>
</g>
<g>
</g>
<g>
</g>
<g>
</g>
<g>
</g>
<g>
</g>
<g>
</g>
<g>
</g>
<g>
</g>
<g>
</g>
<g>
</g>
<g>
</g>
<g>
</g>
<g>
</g>
<g>
</g>
</svg>
