<svg id="Capa_1" enable-background="new 0 0 512 512" height="512" viewBox="0 0 512 512" width="512" xmlns="http://www.w3.org/2000/svg"><path d="m321.918 253.847c41.475-23.193 69.582-67.546 69.582-118.347 0-74.715-60.785-135.5-135.5-135.5s-135.5 60.785-135.5 135.5c0 50.801 28.107 95.154 69.582 118.347-64.293 26.124-109.748 89.258-109.748 162.819v40.167c0 30.419 24.747 55.167 55.166 55.167h241c30.419 0 55.166-24.748 55.166-55.167v-40.167c0-73.561-45.455-136.695-109.748-162.819zm-80.918 88.554-46.933-57.559c14.503-6.841 30.306-11.366 46.933-13.074zm30-70.633c16.627 1.708 32.43 6.233 46.933 13.074l-46.933 57.559zm-120.5-136.268c0-58.173 47.327-105.5 105.5-105.5s105.5 47.327 105.5 105.5-47.327 105.5-105.5 105.5-105.5-47.327-105.5-105.5zm-40.166 321.333v-40.167c0-47.356 22.721-89.501 57.828-116.122l72.838 89.329v92.127h-105.5c-13.877 0-25.166-11.29-25.166-25.167zm291.332 0c0 13.877-11.289 25.167-25.166 25.167h-105.5v-92.127l72.838-89.329c35.107 26.621 57.828 68.766 57.828 116.122z"/></svg>