<?xml version="1.0" encoding="iso-8859-1"?>
<!-- Generator: Adobe Illustrator 19.0.0, SVG Export Plug-In . SVG Version: 6.00 Build 0)  -->
<svg version="1.1" id="Capa_1" xmlns="http://www.w3.org/2000/svg" xmlns:xlink="http://www.w3.org/1999/xlink" x="0px" y="0px"
	 viewBox="0 0 364.16 364.16" style="enable-background:new 0 0 364.16 364.16;" xml:space="preserve">
<g>
	<g>
		<path d="M308.16,110.914H221.6v-16.4h15.2c3.314,0.016,6.013-2.656,6.03-5.97c0.007-1.413-0.485-2.784-1.39-3.87l-54.72-66.32
			c-2.304-2.563-6.25-2.772-8.812-0.468c-0.164,0.148-0.32,0.304-0.468,0.468l-54.72,66.32c-2.121,2.546-1.776,6.329,0.77,8.45
			c1.086,0.905,2.456,1.397,3.87,1.39h15.2v16.48H56c-41.28,0-56,28.88-56,56v124.88c0,27.04,14.72,56,56,56h252.16
			c27.04,0,56-14.72,56-56v-124.96C364.08,126.034,335.2,110.914,308.16,110.914z M140.16,82.434l41.92-50.88L224,82.434h-8.48
			c-3.314,0-6,2.686-6,6v68.24h-54.88v-68.24c0-3.314-2.686-6-6-6L140.16,82.434z M56,122.834l86.64,0.16v40c0,3.314,2.686,6,6,6
			h66.88c3.314,0,6-2.686,6-6v-40h86.64c9.809-0.084,19.428,2.697,27.68,8l-153.76,99.6l-36.4-24
			c-0.643-0.586-1.408-1.023-2.24-1.28l-115.28-74.48C36.334,125.233,46.1,122.427,56,122.834z M12.08,291.874v-124.96
			c0.027-9.643,2.802-19.078,8-27.2l112,72.64l-107.76,112C16.27,315.471,11.895,303.861,12.08,291.874z M306.72,335.714L56,335.794
			c-7.604,0.192-15.152-1.34-22.08-4.48l108.16-112.32l36.72,24c0.795,0.401,1.67,0.619,2.56,0.64c0.89-0.021,1.765-0.239,2.56-0.64
			l36.96-24l108,112C321.915,334.131,314.359,335.74,306.72,335.714z M340.32,323.874l-107.76-112l112-72.56
			c5.268,8.093,7.869,17.633,7.44,27.28v125.28C352.712,303.699,348.482,315.288,340.32,323.874z"/>
	</g>
</g>
<g>
</g>
<g>
</g>
<g>
</g>
<g>
</g>
<g>
</g>
<g>
</g>
<g>
</g>
<g>
</g>
<g>
</g>
<g>
</g>
<g>
</g>
<g>
</g>
<g>
</g>
<g>
</g>
<g>
</g>
</svg>
